<svg xmlns="http://www.w3.org/2000/svg" viewBox="0 0 278.54 213.4"><defs><style>.cls-1,.cls-4{fill:#fff;}.cls-1{stroke:#fff;stroke-miterlimit:10;stroke-width:4px;}.cls-2{fill:#9df4a9;}.cls-3{font-size:171.46px;font-family:ReemKufi-Regular, Reem Kufi;}.cls-3,.cls-5{fill:#dafc4c;}.cls-6{fill:#cfe83a;}</style></defs><g id="Layer_2" data-name="Layer 2"><g id="Layer_1-2" data-name="Layer 1"><line class="cls-1" x1="218.4" y1="122" x2="183.4" y2="126"/><path class="cls-2" d="M241.4,112s-3-28-13-34-17-6-22-6-32,2-35,5-26,47-12,56c2.3,1.47,3.22,2.81,3.16,4-.21,4.69-14.37,7.58-26.16,10-14.51,2.94-27.66,5.5-30.5.5-1.87-3.3,2.49-6.84,0-13-.32-.81-2.25-5.32-6.78-7A9.1,9.1,0,0,0,94.4,127c-10,2-10,5-13,9s-12,9-18,7-22,8-22,13-20,40,3,37,40-17,58-13c10.56,2.35,11.14,6.41,15.87,9.37,5.79,3.63,12.83,4.33,21.13,3.63,28.31-2.4,34.83-7.5,51-6,7.72.72,5.06,1.77,21,5,23.12,4.69,34.68,7,44,3,15.3-6.61,25.79-25.77,22.55-39.33A16.17,16.17,0,0,0,273.4,148,398.34,398.34,0,0,1,241.4,112Z"/><text class="cls-3" transform="translate(163.41 147.88) scale(1.45 1)">ع</text><path class="cls-4" d="M94.58,147.36a4.65,4.65,0,0,1-2.73-.79,2.2,2.2,0,0,1,0-3.85,5.11,5.11,0,0,1,5.46,0,2.2,2.2,0,0,1,0,3.85A4.61,4.61,0,0,1,94.58,147.36Z"/><path class="cls-4" d="M62.7,179.79a17.65,17.65,0,0,1-6.59-1,10,10,0,0,1-3.86-2.58,8.56,8.56,0,0,1-1.8-3.11,9.62,9.62,0,0,1-.46-2.65,7.06,7.06,0,0,1,1.23-3.94,13.68,13.68,0,0,1,3.16-3.35,20.78,20.78,0,0,1,4-2.41,3.56,3.56,0,0,1-.13,1.69,4.4,4.4,0,0,1-1.2,1.68,3.23,3.23,0,0,1,1.67,1.13,1.55,1.55,0,0,1,.26,1.59,11.41,11.41,0,0,0-1.63-.54,5,5,0,0,0-1.63-.07,3.48,3.48,0,0,0-2.79,1.5,4.74,4.74,0,0,0-.94,2.72,6,6,0,0,0,1,3.3,6.61,6.61,0,0,0,3.29,2.46,17.75,17.75,0,0,0,6.46.94A10.86,10.86,0,0,0,68,176.07a5.71,5.71,0,0,0,2.59-3,12.8,12.8,0,0,0,.74-4.53V152.7l6.65-1v4.69h34a20.72,20.72,0,0,1,7.42,1,7.54,7.54,0,0,1,3.73,2.82,9.09,9.09,0,0,1,1.33,3.82,27.87,27.87,0,0,1,.16,4.07v1.22a.83.83,0,0,1-.66.8,7.41,7.41,0,0,1-2,.28H77.94a7.36,7.36,0,0,1-1.73,4.75,11.44,11.44,0,0,1-5.09,3.38A24.49,24.49,0,0,1,62.7,179.79Zm15.24-14.06h39.94a4.66,4.66,0,0,0-1.1-3.32q-1.17-1.36-4.89-1.36H77.94Z"/><path class="cls-4" d="M128.79,176.6a28.81,28.81,0,0,0,6.23.61,9.46,9.46,0,0,0,3.76-.75,3.77,3.77,0,0,0,1.83-1.64,4.32,4.32,0,0,0,.5-2V170a14.24,14.24,0,0,1-3.26.38,12.87,12.87,0,0,1-5-.94,9.36,9.36,0,0,1-3.62-2.55,5.28,5.28,0,0,1,0-7.1,9.42,9.42,0,0,1,3.62-2.53,12.87,12.87,0,0,1,5-.94h.66c.89,0,2,0,3.2-.07a16.43,16.43,0,0,0,3.56-.52,4.19,4.19,0,0,0,2.49-1.57v18.19a5.63,5.63,0,0,1-1.49,4.05,8.82,8.82,0,0,1-3.9,2.3,16.33,16.33,0,0,1-5,.68,17.37,17.37,0,0,1-4.93-.78A8.82,8.82,0,0,1,128.79,176.6Zm9.06-10.87a3.94,3.94,0,0,0,2.36-.68,1.91,1.91,0,0,0,0-3.32,3.94,3.94,0,0,0-2.36-.68,4,4,0,0,0-2.37.68,1.92,1.92,0,0,0,0,3.32A4,4,0,0,0,137.85,165.73Z"/><path class="cls-4" d="M143.77,177.45a29.37,29.37,0,0,0,6.22.61,9.78,9.78,0,0,0,3.76-.75,4,4,0,0,0,1.84-1.64,4.38,4.38,0,0,0,.49-2V157.39l6.66-1v16.87a5.6,5.6,0,0,1-1.5,4.05,8.69,8.69,0,0,1-3.89,2.3,16.4,16.4,0,0,1-5,.68,17.35,17.35,0,0,1-4.92-.77A9,9,0,0,1,143.77,177.45Z"/><path class="cls-5" d="M163.46,152.39a5.72,5.72,0,0,1-8,.87,5.89,5.89,0,0,1-1.95-2.69,3.49,3.49,0,0,0,.72.77c1.79,1.38,4.56.79,6.21-1.33s1.54-4.95-.24-6.34a3.38,3.38,0,0,0-.93-.51,5.89,5.89,0,0,1,3.1,1.22A5.73,5.73,0,0,1,163.46,152.39Z"/><path class="cls-6" d="M94.4,134a2.54,2.54,0,1,0,3,2.5A2.79,2.79,0,0,0,94.4,134Zm-.08,4.35a1.79,1.79,0,1,1,2.05-1.77A1.93,1.93,0,0,1,94.32,138.35Z"/><path class="cls-5" d="M270.44,112.57c.89-7,4.25-38-12.85-50.54-6.13-4.51-15.3-7-16.49-7.28-9.15-2.4-23.77-3.7-31.62-6.69-.22-.08-.75,0-.68-.23,0,0,30.79,4.52,46.86,20.62C263.09,75.9,270.31,88.77,270.44,112.57Z"/><path class="cls-5" d="M3.4,166.74c-1.59,4.2-8.18,22.89,2.87,32.52,4,3.46,10.46,6,11.31,6.31,6.48,2.48,17.19,4.9,22.63,7.61.15.08.56.09.47.22s-22.3-6.19-32.12-17.88C4,190.12.35,181.4,3.4,166.74Z"/></g></g></svg>